<?xml version="1.0" encoding="UTF-8"?>
<svg xmlns="http://www.w3.org/2000/svg" xmlns:xlink="http://www.w3.org/1999/xlink" viewBox="0 0 64 64" width="64px" height="64px">
<defs>
<radialGradient id="radial0" gradientUnits="userSpaceOnUse" cx="87.34375" cy="84.65625" fx="87.34375" fy="84.65625" r="83.32325" gradientTransform="matrix(0.372093,0,0,0.372093,0,0)">
<stop offset="0" style="stop-color:rgb(94.509804%,86.274511%,67.058825%);stop-opacity:1;"/>
<stop offset="0.106" style="stop-color:rgb(94.509804%,86.274511%,67.058825%);stop-opacity:1;"/>
<stop offset="0.437" style="stop-color:rgb(94.509804%,86.274511%,67.058825%);stop-opacity:1;"/>
<stop offset="0.744" style="stop-color:rgb(94.509804%,86.274511%,67.058825%);stop-opacity:1;"/>
<stop offset="1" style="stop-color:rgb(94.509804%,86.274511%,67.058825%);stop-opacity:1;"/>
</radialGradient>
</defs>
<g id="surface168887863">
<path style=" stroke:none;fill-rule:nonzero;fill:url(#radial0);" d="M 60 26 C 62.335938 26 64.21875 23.972656 63.980469 21.589844 C 63.769531 19.515625 61.898438 18 59.8125 18 L 59.105469 18 C 58.109375 18 57.1875 17.320312 57.027344 16.335938 C 56.824219 15.082031 57.785156 14 59 14 L 59.355469 14 C 60.664062 14 61.855469 13.058594 61.988281 11.757812 C 62.136719 10.261719 60.964844 9 59.5 9 L 44.5 9 C 43.671875 9 43 8.328125 43 7.5 C 43 6.671875 43.671875 6 44.5 6 L 48.355469 6 C 49.664062 6 50.855469 5.058594 50.988281 3.757812 C 51.136719 2.261719 49.964844 1 48.5 1 L 15.644531 1 C 14.335938 1 13.144531 1.941406 13.011719 3.242188 C 12.863281 4.738281 14.035156 6 15.5 6 L 18.894531 6 C 19.890625 6 20.8125 6.679688 20.972656 7.664062 C 21.175781 8.917969 20.214844 10 19 10 L 6.1875 10 C 4.101562 10 2.230469 11.515625 2.019531 13.589844 C 1.78125 15.972656 3.664062 18 6 18 L 6.300781 18 C 8.195312 18 9.894531 19.417969 9.996094 21.3125 C 10.101562 23.328125 8.496094 25 6.5 25 L 5.1875 25 C 3.101562 25 1.230469 26.515625 1.019531 28.589844 C 0.78125 30.972656 2.664062 33 5 33 L 22 33 L 22 44 L 6.132812 44 C 4.679688 44 3.34375 44.972656 3.0625 46.394531 C 2.679688 48.308594 4.152344 50 6 50 L 13 50 C 14.105469 50 15 50.894531 15 52 C 15 53.105469 14.105469 54 13 54 L 10.1875 54 C 8.101562 54 6.230469 55.515625 6.019531 57.589844 C 5.78125 59.972656 7.664062 62 10 62 L 50.8125 62 C 52.898438 62 54.769531 60.484375 54.980469 58.410156 C 55.21875 56.027344 53.335938 54 51 54 L 41.105469 54 C 40.109375 54 39.1875 53.320312 39.027344 52.335938 C 38.824219 51.082031 39.785156 50 41 50 L 52.386719 50 C 54.054688 50 55.582031 48.878906 55.921875 47.242188 C 56.390625 44.996094 54.667969 43 52.5 43 L 50.644531 43 C 49.335938 43 48.144531 42.058594 48.011719 40.757812 C 47.863281 39.261719 49.035156 38 50.5 38 L 57.867188 38 C 59.320312 38 60.65625 37.027344 60.941406 35.605469 C 61.320312 33.691406 59.847656 32 58 32 L 42 32 L 42 26 Z M 60 26 "/>
<path style=" stroke:none;fill-rule:nonzero;fill:rgb(90.196079%,78.431374%,0%);fill-opacity:1;" d="M 44.996094 17 L 28.265625 17 C 27.558594 17 26.949219 17.492188 26.800781 18.183594 L 19.035156 54.183594 C 18.832031 55.117188 19.546875 56 20.5 56 L 30.433594 56 C 31.140625 56 31.75 55.507812 31.898438 54.816406 L 34.660156 42 L 41.28125 42 C 48.253906 42 54.277344 37.136719 55.746094 30.320312 C 57.226562 23.46875 52.003906 17 44.996094 17 Z M 44.996094 17 "/>
<path style=" stroke:none;fill-rule:nonzero;fill:rgb(81.176472%,70.588237%,0%);fill-opacity:1;" d="M 23.601562 33 L 30.28125 33 C 30.523438 33 30.761719 32.980469 31 32.96875 C 37.660156 32.644531 43.328125 27.898438 44.746094 21.320312 C 46.226562 14.46875 41.003906 8 33.996094 8 L 17.265625 8 C 16.558594 8 15.949219 8.492188 15.800781 9.183594 L 8.035156 45.183594 C 7.832031 46.117188 8.546875 47 9.5 47 L 20.585938 47 Z M 23.601562 33 "/>
<path style=" stroke:none;fill-rule:nonzero;fill:rgb(67.450982%,58.431375%,0.784314%);fill-opacity:1;" d="M 44.800781 17 L 28.265625 17 C 27.558594 17 26.949219 17.492188 26.800781 18.183594 L 23.601562 33 L 30.28125 33 C 37.253906 33 43.277344 28.136719 44.746094 21.320312 C 45.066406 19.839844 45.058594 18.382812 44.800781 17 Z M 44.800781 17 "/>
</g>
</svg>
