<?xml version="1.0" encoding="utf-8"?>
<!-- Generator: Adobe Illustrator 24.2.1, SVG Export Plug-In . SVG Version: 6.00 Build 0)  -->
<svg version="1.2" baseProfile="tiny" id="Layer_1" xmlns="http://www.w3.org/2000/svg" xmlns:xlink="http://www.w3.org/1999/xlink"
	 x="0px" y="0px" viewBox="0 0 549.43 390" overflow="visible" xml:space="preserve">
<path fill-rule="evenodd" fill="#E5CA00" d="M36.11,31.38l-7.75,7.75c-1.48,1.48-3.91,1.48-5.4,0l-7.74-7.74l0.03-0.02
	c-2.67-2.66-4.32-6.35-4.32-10.42c0-8.13,6.59-14.72,14.72-14.72c8.13,0,14.72,6.59,14.72,14.72c0,4.06-1.65,7.74-4.31,10.41
	L36.11,31.38z"/>
<path fill-rule="evenodd" fill="#E5CA00" d="M115.32,6.24h1.86c0,1.56,1.28,2.84,2.84,2.84h5.67c1.56,0,2.84-1.28,2.84-2.84h1.85
	c2.1,0,3.82,1.72,3.82,3.82v26.38c0,2.1-1.72,3.82-3.82,3.82h-15.05c-2.1,0-3.82-1.72-3.82-3.82V10.05
	C111.5,7.95,113.22,6.24,115.32,6.24z"/>
<path fill-rule="evenodd" fill="#E5CA00" d="M233.97,32.48l-4.34-5.77c-1.26-1.68-3.67-2.02-5.34-0.76
	c-1.23,0.93,0.39-0.29-0.84,0.63c-1.25,0.94-3.03,0.68-3.97-0.56l-1.91-2.54c-0.94-1.25-0.68-3.03,0.56-3.97
	c1.23-0.93-0.39,0.3,0.84-0.63c1.68-1.26,2.02-3.66,0.76-5.34c-1.45-1.93-2.89-3.85-4.34-5.77c-1.26-1.68-3.67-2.02-5.34-0.76
	l-0.2,0.15c-5,3.76-6.01,10.87-2.25,15.87c3.18,4.23,6.36,8.47,9.54,12.7c3.76,5,10.87,6.01,15.87,2.25l0.2-0.15
	C234.89,36.56,235.23,34.16,233.97,32.48z"/>
<path fill-rule="evenodd" fill="#E5CA00" d="M317.22,6.24c5.33,0,10.09,2.45,13.2,6.29c0.12,0.15,0.15,0.34,0.06,0.52
	c-0.08,0.17-0.25,0.28-0.44,0.28H304.4c-0.19,0-0.36-0.1-0.44-0.28c-0.08-0.17-0.06-0.37,0.06-0.52
	C307.13,8.69,311.89,6.24,317.22,6.24L317.22,6.24z M333.08,17.09c0.51,1.32,0.87,2.73,1.03,4.19c0.02,0.14-0.02,0.27-0.12,0.38
	s-0.22,0.16-0.37,0.16h-32.82c-0.14,0-0.27-0.06-0.37-0.16c-0.1-0.11-0.14-0.24-0.12-0.38c0.17-1.46,0.52-2.86,1.03-4.19
	c0.22-0.58,0.75-0.94,1.37-0.94h28.98C332.33,16.16,332.86,16.52,333.08,17.09L333.08,17.09z M334.11,25.21
	c-0.17,1.46-0.52,2.86-1.03,4.19c-0.22,0.58-0.75,0.94-1.37,0.94h-28.98c-0.62,0-1.15-0.36-1.37-0.94
	c-0.51-1.32-0.87-2.73-1.03-4.19c-0.02-0.14,0.02-0.27,0.12-0.38c0.1-0.11,0.22-0.16,0.37-0.16h32.82c0.14,0,0.27,0.06,0.37,0.16
	C334.09,24.93,334.13,25.06,334.11,25.21L334.11,25.21z M330.42,33.96c-3.12,3.84-7.87,6.29-13.2,6.29c-5.33,0-10.08-2.45-13.2-6.29
	c-0.12-0.15-0.15-0.34-0.06-0.52c0.08-0.17,0.25-0.28,0.44-0.28h25.65c0.19,0,0.36,0.1,0.44,0.28
	C330.57,33.62,330.55,33.81,330.42,33.96z"/>
<path fill-rule="evenodd" fill="#E5CA00" d="M498.4,12.59h26.39c2.1,0,3.82,1.72,3.82,3.82v0.97c0,2.1-1.72,3.82-3.82,3.82H498.4
	c-2.1,0-3.82-1.72-3.82-3.82v-0.97C494.58,14.31,496.3,12.59,498.4,12.59L498.4,12.59z M498.4,25.3h26.39c2.1,0,3.82,1.72,3.82,3.82
	v0.97c0,2.1-1.72,3.82-3.82,3.82H498.4c-2.1,0-3.82-1.72-3.82-3.82v-0.97C494.58,27.02,496.3,25.3,498.4,25.3z"/>
<path fill-rule="evenodd" fill="#E5CA00" d="M397.4,30.77c0-3.86,0-11.19,0-15.05c0-0.6,0.14-1.16,0.38-1.66l13.93,13.92
	c1.48,1.48,3.91,1.48,5.4,0l13.93-13.92c0.25,0.5,0.39,1.07,0.39,1.66v15.05c0,2.1-1.72,3.82-3.82,3.82h-26.38
	C399.12,34.58,397.4,32.87,397.4,30.77L397.4,30.77z M399.89,12.14l13.83,13.83c0.38,0.38,1,0.38,1.38,0l13.83-13.83
	c-0.41-0.15-0.86-0.24-1.33-0.24h-26.38C400.75,11.9,400.3,11.99,399.89,12.14z"/>
<path fill-rule="evenodd" fill="#E5CA00" d="M23.93,95.69c6,0,10.86,4.86,10.86,10.86c0,1.23-0.21,2.42-0.58,3.52
	c-0.3,0.87-0.09,1.77,0.56,2.42l2.5,2.5c0.61,0.62,0.98,1.48,0.98,2.42c0,1.91-1.55,3.46-3.46,3.46c-0.94,0-1.79-0.38-2.42-0.98
	l-2.5-2.5c-0.65-0.65-1.55-0.86-2.42-0.56c-1.1,0.38-2.29,0.58-3.52,0.58c-6,0-10.86-4.86-10.86-10.86
	C13.06,100.55,17.93,95.69,23.93,95.69z"/>
<path fill-rule="evenodd" fill="#E5CA00" d="M110.99,114.31l6.03-6.03l-6.03-6.03c-1.42-1.42-1.42-3.75,0-5.17l0.65-0.65
	c1.42-1.42,3.75-1.42,5.17,0l6.03,6.03l6.03-6.03c1.42-1.42,3.75-1.42,5.17,0l0.65,0.65c1.42,1.42,1.42,3.75,0,5.17l-6.03,6.03
	l6.03,6.03c1.42,1.42,1.42,3.75,0,5.17l-0.65,0.65c-1.42,1.42-3.75,1.42-5.17,0l-6.03-6.03l-6.03,6.03c-1.42,1.42-3.75,1.42-5.17,0
	l-0.65-0.65C109.57,118.06,109.57,115.73,110.99,114.31z"/>
<path fill-rule="evenodd" fill="#E5CA00" d="M223.65,109.69c3.03,1.07,5.44,3.44,6.56,6.44c0.33,0.89,0.22,1.81-0.32,2.59
	c-0.54,0.78-1.36,1.21-2.31,1.21h-15.08c-0.95,0-1.77-0.43-2.31-1.21c-0.54-0.78-0.66-1.7-0.32-2.59c1.12-3,3.54-5.37,6.56-6.44
	c-2.04-1.23-3.41-3.47-3.41-6.03c0-3.88,3.15-7.03,7.03-7.03c3.88,0,7.03,3.15,7.03,7.03C227.06,106.22,225.69,108.46,223.65,109.69
	z"/>
<path fill-rule="evenodd" fill="#E5CA00" d="M328.47,106.37l-8.66-8.66c-1.42-1.42-3.75-1.42-5.17,0l-8.67,8.66
	c-0.14,0.14-0.18,0.33-0.1,0.51c0.07,0.18,0.24,0.29,0.43,0.29h2.67v9.11c0,2.01,1.65,3.65,3.65,3.65h9.18
	c2.01,0,3.65-1.64,3.65-3.65v-9.11h2.67c0.19,0,0.36-0.11,0.43-0.29C328.64,106.7,328.61,106.5,328.47,106.37z"/>
<path fill-rule="evenodd" fill="#E5CA00" d="M423.93,98.2h8.35c0.75,0,1.36,0.61,1.36,1.36v5.35c0,0.75-0.61,1.36-1.36,1.36h-6.52
	l-20.18,11.9v0c-0.2,0.12-0.44,0.19-0.69,0.19h-8.35c-0.75,0-1.36-0.61-1.36-1.36v-5.35c0-0.75,0.61-1.36,1.36-1.36h6.52
	l20.16-11.89c0.15-0.09,0.31-0.15,0.48-0.18l0.01,0l0.01,0l0.02,0l0.01,0l0,0l0.01,0l0.01,0l0.03,0l0.01,0l0.01,0l0.02,0l0.01,0
	l0.01,0l0.01,0l0.01,0l0.01,0h0h0.01l0.01,0L423.93,98.2z"/>
<path fill-rule="evenodd" fill="#E5CA00" d="M488.76,125.29h45.68c0.75,0,1.36-0.61,1.36-1.36v-5.35c0-0.75-0.61-1.36-1.36-1.36
	h-45.68c-0.75,0-1.36,0.61-1.36,1.36v5.35C487.4,124.68,488.01,125.29,488.76,125.29L488.76,125.29z M516.11,93.86l-1.76-1.54
	c-1.59-1.39-3.92-1.39-5.51,0l-1.76,1.54c-8.05,1.87-14.23,8.65-15.21,17.01c-0.07,0.61,0.1,1.17,0.51,1.63
	c0.41,0.46,0.94,0.7,1.56,0.7h35.29c0.62,0,1.15-0.24,1.56-0.7c0.41-0.46,0.59-1.02,0.51-1.63
	C530.34,102.5,524.16,95.73,516.11,93.86z"/>
<path fill-rule="evenodd" fill="#E5CA00" d="M21.36,206.52v-15.05c0-2.1,1.72-3.81,3.81-3.81h0.97c2.1,0,3.81,1.72,3.81,3.81v15.05
	c0,2.1-1.72,3.81-3.81,3.81h-0.97C23.08,210.33,21.36,208.61,21.36,206.52L21.36,206.52z M21.36,181.1v-0.97
	c0-2.1,1.72-3.81,3.81-3.81h0.97c2.1,0,3.81,1.72,3.81,3.81v0.97c0,2.1-1.72,3.81-3.81,3.81h-0.97
	C23.08,184.91,21.36,183.19,21.36,181.1z"/>
<path fill-rule="evenodd" fill="#E5CA00" d="M534.11,197.98l-9.04-9.04c-1.48-1.48-3.91-1.48-5.39,0l-9.04,9.04
	c-0.14,0.14-0.18,0.35-0.11,0.53c0.08,0.19,0.25,0.3,0.45,0.3c10.79,0,12.01,0,22.79,0c0.2,0,0.38-0.12,0.45-0.3
	C534.3,198.33,534.26,198.13,534.11,197.98L534.11,197.98z M489.08,188.66c-0.14-0.14-0.18-0.35-0.11-0.53
	c0.08-0.19,0.25-0.3,0.45-0.3c10.78,0,12,0,22.79,0c0.2,0,0.38,0.12,0.45,0.3c0.08,0.19,0.04,0.39-0.11,0.53l-9.04,9.04
	c-1.48,1.48-3.91,1.48-5.39,0L489.08,188.66z"/>
<path fill-rule="evenodd" fill="#E5CA00" d="M107.48,186.12c4.4-2.92,9.68-4.61,15.36-4.61c5.68,0,10.96,1.7,15.36,4.61
	c0.48,0.32,0.77,0.77,0.87,1.34c0.09,0.57-0.04,1.09-0.39,1.55l-1.17,1.51c-0.64,0.82-1.79,1.01-2.66,0.45
	c-3.45-2.25-7.57-3.56-12-3.56c-4.43,0-8.55,1.31-12,3.56c-0.87,0.57-2.03,0.38-2.66-0.45l-1.17-1.51
	c-0.35-0.45-0.49-0.98-0.39-1.55C106.71,186.9,107,186.44,107.48,186.12L107.48,186.12z M133.31,195.91
	c0.36-0.47,0.49-1.01,0.39-1.58c-0.11-0.58-0.42-1.04-0.93-1.34c-2.89-1.76-6.29-2.77-9.93-2.77c-3.63,0-7.03,1.01-9.93,2.77
	c-0.5,0.31-0.82,0.76-0.93,1.34c-0.11,0.58,0.03,1.12,0.39,1.58l1.18,1.51c0.62,0.79,1.71,1.01,2.58,0.5
	c1.97-1.15,4.26-1.82,6.71-1.82c2.45,0,4.74,0.66,6.71,1.82c0.87,0.51,1.96,0.3,2.58-0.5L133.31,195.91L133.31,195.91z
	 M127.89,202.88l-1.15,1.48c-0.54,0.7-1.44,0.95-2.27,0.64c-0.51-0.19-1.06-0.29-1.63-0.29c-0.57,0-1.12,0.1-1.63,0.29
	c-0.83,0.31-1.73,0.06-2.27-0.64l-1.15-1.48c-0.39-0.5-0.51-1.09-0.36-1.7c0.15-0.61,0.54-1.08,1.12-1.34
	c1.31-0.59,2.76-0.92,4.29-0.92c1.53,0,2.98,0.33,4.29,0.92c0.58,0.26,0.96,0.72,1.12,1.34
	C128.4,201.79,128.28,202.39,127.89,202.88z"/>
<path fill-rule="evenodd" fill="#E5CA00" d="M242.64,199.99l4.57,6.57c0.1,0.14,0.11,0.31,0.03,0.46c-0.08,0.15-0.22,0.24-0.39,0.24
	h-27.69c-0.17,0-0.31-0.09-0.39-0.24c-0.08-0.15-0.07-0.32,0.03-0.46l4.57-6.57c1.39-2,3.87-2.77,6.15-1.92
	c1.08,0.4,2.26,0.62,3.48,0.62c1.23,0,2.4-0.22,3.48-0.62C238.77,197.22,241.25,197.99,242.64,199.99L242.64,199.99z M233,183.65
	c2.78,0,5.04,2.26,5.04,5.04c0,2.78-2.26,5.04-5.04,5.04c-2.78,0-5.04-2.26-5.04-5.04C227.96,185.91,230.22,183.65,233,183.65
	L233,183.65z M207.06,179.4c2.78,0,5.04,2.26,5.04,5.04c0,2.78-2.26,5.04-5.04,5.04s-5.04-2.26-5.04-5.04
	C202.02,181.65,204.28,179.4,207.06,179.4L207.06,179.4z M211.01,205.18l10.25-14.72c0.1-0.14,0.11-0.31,0.03-0.46
	c-0.08-0.15-0.22-0.24-0.39-0.24h-2.87c-1.48,0-2.76,0.54-3.78,1.61c-1.82,1.88-4.37,3.06-7.19,3.06c-2.82,0-5.37-1.17-7.19-3.06
	c-1.03-1.07-2.3-1.61-3.78-1.61h-2.87c-0.17,0-0.31,0.09-0.39,0.24c-0.08,0.15-0.07,0.32,0.03,0.46l10.25,14.72
	c0.93,1.34,2.33,2.07,3.96,2.07S210.09,206.52,211.01,205.18z"/>
<path fill-rule="evenodd" fill="#E5CA00" d="M320.1,176.32c5.88,0,10.65,4.77,10.65,10.65c0,5.88-4.77,10.65-10.65,10.65l-12.6,0
	c-2.1,0-3.81-1.72-3.81-3.81v-0.97c0-2.1,1.72-3.81,3.81-3.81l12.6,0c1.13,0,2.06-0.92,2.06-2.05c0-1.14-0.92-2.06-2.06-2.06h-12.6
	c-2.1,0-3.81-1.72-3.81-3.81v-0.97c0-2.1,1.72-3.81,3.81-3.81H320.1L320.1,176.32z M307.5,201.73h8.79c2.1,0,3.81,1.72,3.81,3.81
	v0.97c0,2.1-1.72,3.81-3.81,3.81h-8.79c-2.1,0-3.81-1.72-3.81-3.81v-0.97C303.69,203.45,305.4,201.73,307.5,201.73z"/>
<path fill-rule="evenodd" fill="#E5CA00" d="M428.15,203.74h-36.01c-0.59,0-1.07,0.48-1.07,1.07v4.22c0,0.59,0.48,1.07,1.07,1.07
	h36.01c0.59,0,1.07-0.48,1.07-1.07v-4.22C429.22,204.22,428.74,203.74,428.15,203.74L428.15,203.74z M432.41,203.74h-0.7
	c-0.59,0-1.07,0.48-1.07,1.07v4.22c0,0.59,0.48,1.07,1.07,1.07h0.7c0.59,0,1.07-0.48,1.07-1.07v-4.22
	C433.48,204.22,433,203.74,432.41,203.74L432.41,203.74z M436.67,203.74h-0.7c-0.59,0-1.07,0.48-1.07,1.07v4.22
	c0,0.59,0.48,1.07,1.07,1.07h0.7c0.59,0,1.07-0.48,1.07-1.07v-4.22C437.74,204.22,437.26,203.74,436.67,203.74L436.67,203.74z
	 M430.69,196.19c0-0.53-0.42-0.95-0.95-0.95h-7.52c-2.19,0-3.86-1.79-3.85-3.88v-0.6c-3.57-0.43-6.27-3.48-6.27-7.08
	c0-3.94,3.19-7.13,7.13-7.13h1.12c0.59,0,1.07,0.48,1.07,1.07v0.61c0,0.59-0.48,1.07-1.07,1.07h-1.12c-2.42,0-4.39,1.96-4.39,4.39
	s1.96,4.39,4.39,4.39c0.17,0,0.34,0,0.51,0c0.76,0,1.37,0.61,1.37,1.37l0,1.93c0,0.63,0.48,1.12,1.11,1.12l7.52,0
	c2.04,0,3.7,1.66,3.7,3.7v5.33c0,0.59-0.48,1.07-1.07,1.07h-0.61c-0.59,0-1.07-0.48-1.07-1.07V196.19L430.69,196.19z M422.71,183.47
	c0.79,0,1.51,0.32,2.03,0.84c0.52,0.52,0.84,1.24,0.84,2.03c0,0.83-0.33,1.58-0.95,2.13c-0.56,0.51-0.61,1.37-0.1,1.94
	c0.29,0.33,0.71,0.48,1.11,0.45l4.92,0.01c2.43,0,4.39,1.96,4.39,4.39v6.28c0,0.59,0.48,1.07,1.07,1.07h0.61
	c0.59,0,1.07-0.48,1.07-1.07v-6.28c0-3.93-3.2-7.13-7.13-7.13l-2.53,0.01c0.19-0.57,0.29-1.17,0.29-1.78c0-1.55-0.63-2.95-1.64-3.97
	c-1.02-1.02-2.42-1.64-3.97-1.64h-1.12c-0.59,0-1.07,0.48-1.07,1.07v0.61c0,0.59,0.48,1.07,1.07,1.07H422.71z"/>
<path fill-rule="evenodd" fill="#E5CA00" d="M16.52,264.59H34.8c2.55,0,4.64,2.09,4.64,4.64v18.28c0,2.55-2.09,4.64-4.64,4.64H16.52
	c-2.55,0-4.64-2.09-4.64-4.64v-18.28C11.88,266.67,13.97,264.59,16.52,264.59L16.52,264.59z M23.4,292.14h4.06v-9.25l3.03,0
	l0.57-3.75l-3.61,0c0-1.11-0.19-2.95,0.38-3.74c0.65-0.91,2.03-0.73,3.38-0.73v-3.21c-2.58-0.33-4.85-0.52-6.46,1.02
	c-1.72,1.64-1.37,4.39-1.37,6.66h-3.3l0,3.76h3.32L23.4,292.14z"/>
<path fill-rule="evenodd" fill="#E5CA00" d="M113.7,264.59h18.28c2.55,0,4.64,2.09,4.64,4.64v18.28c0,2.55-2.09,4.64-4.64,4.64
	H113.7c-2.55,0-4.64-2.09-4.64-4.64v-18.28C109.07,266.67,111.15,264.59,113.7,264.59L113.7,264.59z M120.07,275.32L120,287.08h3.92
	v-6.89c0-2.42,4.12-3.15,4.12,0.2v6.69h3.92v-6.69c0-6.39-6.75-6.45-8.04-3.45v-1.62H120.07L120.07,275.32z M115.88,269.65
	c-1.19,0-2.16,0.91-2.16,2.03c0,1.12,0.97,2.03,2.16,2.03c1.19,0,2.16-0.91,2.16-2.03C118.04,270.56,117.08,269.65,115.88,269.65
	L115.88,269.65z M113.92,275.32v11.76h3.92v-11.76H113.92z"/>
<path fill-rule="evenodd" fill="#E5CA00" d="M210.89,264.59h18.28c2.55,0,4.64,2.09,4.64,4.64v18.28c0,2.55-2.09,4.64-4.64,4.64
	h-18.28c-2.55,0-4.64-2.09-4.64-4.64v-18.28C206.26,266.67,208.34,264.59,210.89,264.59L210.89,264.59z M215.82,270.21
	c-2.19,0-3.98,1.79-3.98,3.98v8.37c0,2.19,1.79,3.98,3.98,3.98h8.41c2.19,0,3.98-1.79,3.98-3.98v-8.37c0-2.19-1.79-3.98-3.98-3.98
	H215.82L215.82,270.21z M225.36,271.82c-0.69,0-1.24,0.56-1.24,1.24s0.56,1.24,1.24,1.24s1.24-0.56,1.24-1.24
	S226.05,271.82,225.36,271.82L225.36,271.82z M220.03,275.02c-1.85,0-3.36,1.5-3.36,3.36c0,1.85,1.5,3.36,3.36,3.36
	c1.85,0,3.36-1.5,3.36-3.36C223.38,276.52,221.88,275.02,220.03,275.02L220.03,275.02z M220.03,273.12c-2.9,0-5.26,2.35-5.26,5.26
	c0,2.9,2.35,5.26,5.26,5.26c2.9,0,5.26-2.35,5.26-5.26C225.29,275.47,222.93,273.12,220.03,273.12L220.03,273.12z M215.82,268.3
	c-3.24,0-5.88,2.65-5.88,5.88v8.37c0,3.24,2.65,5.88,5.88,5.88h8.41c3.24,0,5.88-2.65,5.88-5.88v-8.37c0-3.24-2.65-5.88-5.88-5.88
	H215.82z"/>
<path fill-rule="evenodd" fill="#E5CA00" d="M308.08,264.59h18.28c2.55,0,4.64,2.09,4.64,4.64v18.28c0,2.55-2.09,4.64-4.64,4.64
	h-18.28c-2.55,0-4.64-2.09-4.64-4.64v-18.28C303.44,266.67,305.53,264.59,308.08,264.59L308.08,264.59z M314.39,281.77l2.35,5.35
	c0.2,0.46,0.64,0.74,1.15,0.73c0.51-0.01,0.93-0.31,1.11-0.78l5.65-14.61c0.18-0.46,0.07-0.96-0.28-1.31
	c-0.35-0.35-0.84-0.45-1.31-0.28l-14.61,5.65c-0.47,0.18-0.77,0.61-0.78,1.11c-0.01,0.51,0.27,0.94,0.73,1.15l5.35,2.35
	C314.05,281.27,314.26,281.48,314.39,281.77z"/>
<path fill-rule="evenodd" fill="#E5CA00" d="M414.41,264.59c-7.61,0-13.77,6.17-13.77,13.77c0,1.56,0.26,3.07,0.74,4.47
	c0.16,0.45,0.2,0.91,0.15,1.36l-0.7,5.79c-0.07,0.56,0.11,1.06,0.51,1.46c0.4,0.4,0.9,0.57,1.46,0.51l5.83-0.7
	c0.43-0.05,0.88,0,1.31,0.15c1.4,0.48,2.9,0.74,4.47,0.74c7.61,0,13.77-6.17,13.77-13.77C428.18,270.75,422.02,264.59,414.41,264.59
	L414.41,264.59z M419.84,281.96c0.49,0.65,0.36,1.59-0.3,2.08l-0.08,0.06c-1.95,1.47-4.72,1.07-6.18-0.88
	c-1.24-1.65-2.48-3.3-3.72-4.95c-1.47-1.95-1.07-4.72,0.88-6.18l0.08-0.06c0.65-0.49,1.59-0.36,2.08,0.3
	c0.56,0.75,0.79,0.93,1.36,1.68c0.49,0.65,0.36,1.59-0.3,2.08c-0.48,0.36-0.34,0.28-0.82,0.64c-0.49,0.37-0.57,1.05-0.22,1.55
	l1.46,2.06c0.35,0.5,1.06,0.58,1.55,0.22c0.48-0.36,0.34-0.28,0.82-0.64c0.65-0.49,1.59-0.36,2.08,0.3L419.84,281.96z"/>
<path fill-rule="evenodd" fill="#E5CA00" d="M39.92,364.63l-10.99-10.99c-1.8-1.8-4.75-1.8-6.55,0l-10.99,10.99
	c-0.17,0.17-0.22,0.42-0.13,0.65c0.09,0.23,0.3,0.37,0.55,0.37h4.13c2.78,0,5.08,2.1,5.33,4.86c0.21,2.24,2.09,4,4.39,4
	c2.3,0,4.18-1.76,4.39-4c0.25-2.76,2.55-4.86,5.33-4.86h4.11c0.25,0,0.46-0.14,0.55-0.37C40.14,365.05,40.09,364.8,39.92,364.63z"/>
<path fill-rule="evenodd" fill="#E5CA00" d="M318.45,377.66l-10.99-10.99c-1.8-1.8-1.8-4.75,0-6.55l10.99-10.99
	c0.17-0.17,0.42-0.22,0.65-0.13c0.23,0.09,0.37,0.3,0.37,0.55v4.13c0,2.78,2.1,5.08,4.86,5.33c2.24,0.21,4,2.09,4,4.39
	c0,2.3-1.76,4.18-4,4.39c-2.76,0.25-4.86,2.55-4.86,5.33v4.11c0,0.25-0.14,0.46-0.37,0.55
	C318.87,377.89,318.62,377.84,318.45,377.66z"/>
<path fill-rule="evenodd" fill="#E5CA00" d="M205.77,362.17l10.99,10.99c1.8,1.8,4.75,1.8,6.55,0l10.99-10.99
	c0.17-0.17,0.22-0.42,0.13-0.65c-0.09-0.23-0.3-0.37-0.55-0.37h-4.13c-2.78,0-5.08-2.1-5.33-4.86c-0.21-2.24-2.09-4-4.39-4
	c-2.3,0-4.18,1.76-4.39,4c-0.25,2.76-2.55,4.86-5.33,4.86h-4.11c-0.25,0-0.46,0.14-0.55,0.37
	C205.55,361.75,205.59,362,205.77,362.17z"/>
<path fill-rule="evenodd" fill="#E5CA00" d="M121.61,349.14l10.99,10.99c1.8,1.8,1.8,4.75,0,6.55l-10.99,10.99
	c-0.17,0.17-0.42,0.22-0.65,0.13c-0.23-0.09-0.37-0.3-0.37-0.55v-4.13c0-2.78-2.1-5.08-4.86-5.33c-2.24-0.21-4-2.09-4-4.39
	s1.76-4.18,4-4.39c2.76-0.25,4.86-2.55,4.86-5.33v-4.11c0-0.25,0.14-0.46,0.37-0.55C121.19,348.92,121.44,348.96,121.61,349.14z"/>
</svg>
