<?xml version="1.0" encoding="utf-8"?>
<!-- Generator: Adobe Illustrator 24.2.1, SVG Export Plug-In . SVG Version: 6.00 Build 0)  -->
<svg version="1.1" id="Layer_1" xmlns="http://www.w3.org/2000/svg" xmlns:xlink="http://www.w3.org/1999/xlink" x="0px" y="0px"
	 viewBox="0 0 425.7 93.54" style="enable-background:new 0 0 425.7 93.54;" xml:space="preserve">
<style type="text/css">
	.st0{fill-rule:evenodd;clip-rule:evenodd;fill:#E5C900;}
	.st1{fill-rule:evenodd;clip-rule:evenodd;fill:#FFFFFF;}
</style>
<path class="st0" d="M5.5,0h92.05c2.75,0,5,2.25,5,5v7.01c0,2.75-2.25,5-5,5H5.5c-2.75,0-5-2.25-5-5V5C0.5,2.25,2.75,0,5.5,0L5.5,0z
	 M39.51,76.54h24.02c2.75,0,5,2.25,5,5v7.01c0,2.75-2.25,5-5,5H39.51c-2.75,0-5-2.25-5-5v-7.01C34.51,78.79,36.76,76.54,39.51,76.54
	L39.51,76.54z M39.51,51.02h24.02c2.75,0,5,2.25,5,5v7.01c0,2.75-2.25,5-5,5H39.51c-2.75,0-5-2.25-5-5v-7.01
	C34.51,53.27,36.76,51.02,39.51,51.02L39.51,51.02z M39.51,25.51h24.02c2.75,0,5,2.25,5,5v7.01c0,2.75-2.25,5-5,5H39.51
	c-2.75,0-5-2.25-5-5v-7.01C34.51,27.76,36.76,25.51,39.51,25.51z"/>
<path class="st1" d="M119.57,25.35h34.01l-1.74,2.83h-13.85v22.68h-2.84V28.18h-15.59V25.35L119.57,25.35z M391.68,25.35h2.83
	l28.35,21.93V25.35h2.83v25.51h-2.83l-28.35-21.93v21.93h-2.83V25.35L391.68,25.35z M383.18,50.86h2.84V25.35h-2.84V50.86
	L383.18,50.86z M361.88,25.35h-2.83l-15.63,25.51h3.33l13.72-22.4l13.72,22.4h3.32L361.88,25.35L361.88,25.35z M337.83,25.35h-2.83
	v11.34h-28.35V25.35h-2.83v25.51h2.83V39.52h28.35v11.34h2.83V25.35L337.83,25.35z M271.21,25.35h26.93v2.83h-26.93
	c-2.35,0-4.25,1.9-4.25,4.25v11.34c0,2.35,1.9,4.25,4.25,4.25h26.93v2.83h-26.93c-3.91,0-7.09-3.17-7.09-7.09V32.43
	C264.13,28.52,267.3,25.35,271.21,25.35L271.21,25.35z M194.97,45.18l3.48,5.67h3.32l-3.93-6.41c2.33-1.16,3.93-3.57,3.93-6.34
	v-5.67c0-3.91-3.17-7.09-7.09-7.09h-25.95l1.74,2.83h24.21c2.35,0,4.25,1.9,4.25,4.25v5.67c0,2.32-1.99,4.25-4.25,4.25h-15.53
	l1.74,2.83h13.79C194.78,45.19,194.87,45.19,194.97,45.18L194.97,45.18z M214.52,25.35h26.93v2.83h-26.93
	c-2.35,0-4.25,1.9-4.25,4.25s1.9,4.25,4.25,4.25c6.61,0,13.23,0,19.84,0c3.91,0,7.09,3.17,7.09,7.09s-3.17,7.09-7.09,7.09h-26.93
	v-2.83h26.93c2.35,0,4.25-1.9,4.25-4.25s-1.9-4.25-4.25-4.25c-6.61,0-13.23,0-19.84,0c-3.91,0-7.09-3.17-7.09-7.09
	S210.61,25.35,214.52,25.35L214.52,25.35z M162.08,25.35h-2.83l-15.63,25.51h3.33l13.72-22.4l13.72,22.4h3.32L162.08,25.35z"/>
<path class="st1" d="M127.09,68.08c-0.09,0.13-0.22,0.28-0.39,0.45c-0.17,0.16-0.38,0.32-0.65,0.46c-0.27,0.14-0.6,0.26-1,0.36
	c-0.39,0.1-0.86,0.15-1.41,0.15c-0.6,0-1.14-0.11-1.64-0.32c-0.5-0.21-0.93-0.51-1.29-0.91c-0.36-0.4-0.64-0.88-0.84-1.46
	c-0.2-0.57-0.3-1.22-0.3-1.95V64.1c0-0.73,0.09-1.38,0.26-1.95c0.17-0.57,0.43-1.06,0.76-1.46c0.33-0.4,0.74-0.7,1.23-0.91
	c0.49-0.21,1.05-0.31,1.67-0.31c0.56,0,1.05,0.07,1.47,0.22c0.42,0.15,0.78,0.36,1.07,0.62c0.3,0.27,0.53,0.58,0.7,0.95
	c0.17,0.37,0.29,0.77,0.36,1.2h-1.29c-0.05-0.26-0.13-0.51-0.23-0.75c-0.11-0.24-0.25-0.44-0.43-0.62
	c-0.18-0.18-0.41-0.32-0.68-0.42c-0.27-0.1-0.59-0.15-0.97-0.15c-0.46,0-0.85,0.08-1.18,0.25c-0.33,0.16-0.6,0.4-0.82,0.71
	c-0.21,0.31-0.37,0.68-0.48,1.12c-0.11,0.44-0.16,0.93-0.16,1.48v0.78c0,0.56,0.07,1.07,0.2,1.51c0.13,0.44,0.32,0.82,0.57,1.13
	c0.24,0.31,0.54,0.54,0.88,0.7c0.34,0.16,0.72,0.24,1.14,0.24c0.35,0,0.64-0.03,0.89-0.07c0.24-0.05,0.45-0.11,0.62-0.17
	c0.17-0.07,0.3-0.15,0.41-0.23c0.1-0.08,0.19-0.16,0.25-0.23v-2.19h-2.26V64.5h3.54V68.08L127.09,68.08z M135.31,66.82h-4.09
	l-0.92,2.55h-1.33l3.73-9.76h1.13l3.73,9.76h-1.32L135.31,66.82L135.31,66.82z M131.61,65.76h3.32l-1.66-4.56L131.61,65.76
	L131.61,65.76z M140.95,69.36h-1.29V59.6h1.29V69.36L140.95,69.36z M151.49,69.36h-1.29l-4.91-7.52v7.52h-1.29V59.6h1.29l4.93,7.55
	V59.6h1.28V69.36L151.49,69.36z M161.2,64.5l2.55-4.9h1.46l-3.37,6.12v3.64h-1.29v-3.64l-3.37-6.12h1.48L161.2,64.5L161.2,64.5z
	 M174.66,64.8c0,0.73-0.09,1.39-0.28,1.97c-0.19,0.58-0.45,1.07-0.79,1.48c-0.34,0.41-0.75,0.72-1.23,0.93
	c-0.48,0.22-1.02,0.32-1.62,0.32c-0.58,0-1.11-0.11-1.59-0.32c-0.48-0.21-0.9-0.53-1.25-0.93c-0.35-0.41-0.62-0.9-0.81-1.48
	c-0.19-0.58-0.29-1.24-0.29-1.97v-0.62c0-0.73,0.1-1.38,0.29-1.97c0.19-0.58,0.46-1.08,0.8-1.48c0.35-0.41,0.76-0.72,1.24-0.94
	c0.48-0.22,1.01-0.32,1.59-0.32c0.59,0,1.13,0.11,1.62,0.32c0.49,0.22,0.9,0.53,1.24,0.94c0.34,0.4,0.61,0.9,0.79,1.48
	c0.19,0.58,0.28,1.24,0.28,1.97V64.8L174.66,64.8z M173.39,64.17c0-0.58-0.06-1.09-0.18-1.54c-0.12-0.45-0.29-0.82-0.52-1.13
	c-0.23-0.3-0.51-0.53-0.84-0.69c-0.33-0.16-0.7-0.24-1.11-0.24c-0.4,0-0.76,0.08-1.09,0.24c-0.33,0.16-0.6,0.39-0.84,0.69
	c-0.23,0.3-0.41,0.68-0.53,1.13c-0.12,0.45-0.19,0.96-0.19,1.54v0.63c0,0.59,0.06,1.1,0.19,1.55c0.13,0.45,0.31,0.82,0.54,1.13
	c0.23,0.31,0.51,0.54,0.84,0.7c0.32,0.16,0.69,0.23,1.08,0.23c0.42,0,0.79-0.08,1.12-0.23c0.32-0.16,0.6-0.39,0.83-0.7
	c0.22-0.31,0.4-0.68,0.51-1.13c0.11-0.45,0.17-0.96,0.17-1.55V64.17L173.39,64.17z M184.16,59.6v6.61c0,0.55-0.1,1.03-0.29,1.44
	c-0.19,0.41-0.45,0.75-0.77,1.03c-0.32,0.27-0.7,0.48-1.13,0.61c-0.43,0.14-0.88,0.21-1.35,0.21c-0.5,0-0.96-0.07-1.39-0.21
	c-0.43-0.14-0.8-0.34-1.12-0.61c-0.32-0.27-0.56-0.61-0.74-1.03c-0.18-0.41-0.27-0.89-0.27-1.44V59.6h1.27v6.61
	c0,0.38,0.05,0.71,0.16,0.99c0.11,0.28,0.26,0.51,0.46,0.7c0.2,0.19,0.43,0.32,0.71,0.41c0.28,0.09,0.58,0.14,0.91,0.14
	c0.34,0,0.65-0.05,0.93-0.14c0.28-0.09,0.51-0.23,0.71-0.41c0.2-0.19,0.35-0.42,0.46-0.7c0.11-0.28,0.16-0.61,0.16-0.99V59.6H184.16
	L184.16,59.6z M190.46,65.41h-2.29v3.95h-1.29V59.6h3.23c1.1,0,1.94,0.25,2.54,0.75c0.59,0.5,0.89,1.23,0.89,2.19
	c0,0.61-0.16,1.14-0.49,1.59c-0.33,0.45-0.78,0.79-1.37,1.01l2.29,4.14v0.08h-1.38L190.46,65.41L190.46,65.41z M188.17,64.36h1.98
	c0.35,0,0.65-0.05,0.92-0.14s0.48-0.22,0.65-0.39c0.18-0.16,0.31-0.36,0.39-0.58c0.09-0.22,0.13-0.46,0.13-0.71
	c0-0.28-0.04-0.54-0.12-0.77c-0.08-0.23-0.21-0.43-0.39-0.59c-0.17-0.16-0.4-0.29-0.66-0.38c-0.27-0.09-0.59-0.13-0.96-0.13h-1.94
	V64.36L188.17,64.36z M206.95,66.27c-0.05,0.46-0.17,0.89-0.34,1.28c-0.17,0.4-0.41,0.74-0.71,1.03c-0.3,0.29-0.68,0.51-1.11,0.68
	c-0.44,0.16-0.95,0.24-1.54,0.24c-0.58,0-1.1-0.11-1.57-0.32c-0.47-0.21-0.87-0.52-1.2-0.92c-0.33-0.4-0.59-0.87-0.77-1.42
	c-0.18-0.56-0.27-1.17-0.27-1.86V64c0-0.68,0.09-1.3,0.27-1.86c0.18-0.56,0.44-1.03,0.79-1.43c0.34-0.4,0.75-0.7,1.24-0.92
	c0.49-0.22,1.03-0.32,1.63-0.32c0.55,0,1.04,0.08,1.46,0.24c0.43,0.16,0.78,0.39,1.08,0.67c0.3,0.29,0.53,0.63,0.71,1.03
	c0.17,0.4,0.29,0.84,0.34,1.32h-1.29c-0.05-0.34-0.12-0.65-0.23-0.92c-0.1-0.27-0.24-0.51-0.43-0.7c-0.18-0.19-0.41-0.34-0.67-0.44
	c-0.27-0.1-0.59-0.15-0.97-0.15c-0.43,0-0.81,0.08-1.14,0.25c-0.33,0.17-0.6,0.4-0.82,0.7c-0.22,0.3-0.39,0.67-0.5,1.09
	c-0.11,0.43-0.17,0.9-0.17,1.41v0.99c0,0.48,0.05,0.93,0.15,1.35c0.1,0.42,0.25,0.79,0.46,1.1c0.2,0.31,0.47,0.56,0.78,0.74
	c0.32,0.18,0.69,0.27,1.13,0.27c0.41,0,0.76-0.05,1.04-0.15c0.28-0.1,0.51-0.24,0.7-0.43c0.19-0.19,0.33-0.41,0.43-0.68
	c0.1-0.27,0.18-0.58,0.23-0.92H206.95L206.95,66.27z M216.9,69.36h-1.29v-4.51h-4.92v4.51h-1.29V59.6h1.29v4.2h4.92v-4.2h1.29V69.36
	L216.9,69.36z M225.27,66.82h-4.09l-0.92,2.55h-1.33l3.73-9.76h1.13l3.73,9.76h-1.32L225.27,66.82L225.27,66.82z M221.56,65.76h3.32
	l-1.66-4.56L221.56,65.76L221.56,65.76z M230.9,69.36h-1.29V59.6h1.29V69.36L230.9,69.36z M241.44,69.36h-1.29l-4.91-7.52v7.52
	h-1.29V59.6h1.29l4.93,7.55V59.6h1.28V69.36z"/>
</svg>
